<?xml version="1.0" standalone="no"?>
<!DOCTYPE svg PUBLIC "-//W3C//DTD SVG 20010904//EN"
 "http://www.w3.org/TR/2001/REC-SVG-20010904/DTD/svg10.dtd">
<svg version="1.0" xmlns="http://www.w3.org/2000/svg"
 width="10.000000pt" height="10.000000pt" viewBox="0 0 100.000000 100.000000"
 preserveAspectRatio="xMidYMid meet">

<g transform="translate(0.000000,100.000000) scale(0.100000,-0.100000)"
fill="#22C55E" stroke="none">
<path d="M0 2500 l0 -2500 2500 0 2500 0 0 2500 0 2500 -2500 0 -2500 0 0
-2500z m2295 1495 c55 -7 141 -23 190 -35 311 -71 331 -73 362 -20 19 33 57
41 67 14 3 -9 6 -63 6 -120 l0 -104 30 0 c29 0 80 39 80 61 0 5 11 9 25 9 23
0 25 -3 25 -48 0 -61 18 -534 25 -669 l6 -103 -33 0 c-31 0 -36 5 -80 88 l-46
88 -40 -4 -39 -4 -57 109 c-77 145 -237 384 -283 422 -87 72 -257 108 -383 82
-190 -39 -329 -196 -403 -451 -58 -199 -77 -399 -77 -816 0 -536 36 -790 143
-1004 41 -83 43 -85 97 -105 41 -14 80 -19 150 -19 157 0 222 32 256 122 16
41 18 91 22 395 l3 347 -35 0 c-35 0 -36 1 -36 40 0 39 1 40 35 40 34 0 35 1
35 40 l0 40 -120 0 -120 0 0 45 0 45 545 0 545 0 0 -45 0 -45 -75 0 -75 0 0
-40 0 -40 155 0 155 0 0 -40 0 -40 -70 0 -70 0 0 -535 0 -535 -26 0 c-15 0
-43 14 -66 35 -84 71 -160 71 -433 2 -256 -65 -375 -81 -560 -74 -303 11 -531
75 -725 201 -95 62 -362 315 -430 408 -102 139 -173 317 -212 528 -32 173 -32
535 0 707 52 286 151 494 319 674 126 134 324 256 502 309 190 58 494 77 716
45z m-57 -1161 c28 -19 28 -57 1 -83 -17 -16 -19 -23 -10 -40 7 -12 18 -21 26
-21 20 0 19 -26 -1 -34 -31 -12 -44 -5 -69 34 -18 29 -32 40 -50 40 -22 0 -25
-4 -25 -35 0 -31 -3 -35 -25 -35 -25 0 -25 0 -25 95 l0 95 78 0 c54 0 84 -5
100 -16z m312 -4 c0 -18 -7 -20 -55 -20 -42 0 -55 -3 -55 -15 0 -11 12 -15 50
-15 43 0 50 -3 50 -20 0 -17 -7 -20 -50 -20 -43 0 -50 -3 -50 -20 0 -18 7 -20
60 -20 53 0 60 -2 60 -20 0 -19 -7 -20 -90 -20 l-90 0 0 95 0 95 85 0 c78 0
85 -2 85 -20z m290 0 c0 -18 -7 -20 -55 -20 -42 0 -55 -3 -55 -15 0 -11 12
-15 50 -15 43 0 50 -3 50 -20 0 -17 -7 -20 -50 -20 -43 0 -50 -3 -50 -20 0
-18 7 -20 55 -20 48 0 55 -2 55 -20 0 -18 -7 -20 -85 -20 l-85 0 0 95 0 95 85
0 c78 0 85 -2 85 -20z m231 -42 l44 -63 3 63 c3 58 4 62 27 62 25 0 25 -1 25
-95 l0 -95 -34 0 c-29 0 -38 7 -77 63 l-44 62 -3 -62 c-3 -59 -4 -63 -27 -63
-25 0 -25 1 -25 95 l0 95 33 0 c29 0 38 -7 78 -62z m484 2 c16 -33 32 -60 35
-60 3 0 19 27 35 60 27 56 31 60 62 60 l33 0 0 -95 c0 -95 0 -95 -25 -95 -24
0 -25 3 -26 58 l0 57 -26 -57 c-22 -50 -29 -58 -53 -58 -24 0 -31 8 -53 58
l-26 57 0 -57 c-1 -55 -2 -58 -26 -58 -25 0 -25 0 -25 95 l0 95 33 0 c31 0 35
-4 62 -60z m345 -35 c0 -95 0 -95 -25 -95 -25 0 -25 0 -25 95 0 95 0 95 25 95
25 0 25 0 25 -95z m235 33 l45 -62 0 62 0 62 30 0 30 0 0 -95 0 -95 -37 0
c-35 1 -41 5 -80 62 l-43 62 0 -62 0 -62 -30 0 -30 0 0 95 0 95 35 0 c31 0 39
-6 80 -62z m405 42 c0 -16 -7 -20 -35 -20 l-35 0 0 -75 c0 -73 -1 -75 -25 -75
-24 0 -25 2 -25 75 l0 75 -35 0 c-28 0 -35 4 -35 20 0 19 7 20 95 20 88 0 95
-1 95 -20z"/>
<path d="M2015 3928 c-86 -10 -194 -60 -245 -114 -20 -21 -28 -34 -18 -31 78
27 251 50 423 56 l190 6 -35 21 c-94 55 -196 75 -315 62z"/>
<path d="M2435 1339 c-66 -20 -256 -50 -358 -56 l-108 -6 43 -28 c65 -42 157
-63 253 -56 124 9 177 34 211 99 28 54 18 65 -41 47z"/>
<path d="M2110 2790 c0 -17 7 -20 45 -20 38 0 45 3 45 20 0 17 -7 20 -45 20
-38 0 -45 -3 -45 -20z"/>
</g>
</svg>
